<mxfile host="app.diagrams.net" agent="Mozilla/5.0 (Windows NT 10.0; Win64; x64) AppleWebKit/537.36 (KHTML, like Gecko) Chrome/135.0.0.0 Safari/537.36" version="26.2.7">
  <diagram id="C5RBs43oDa-KdzZeNtuy" name="Page-1">
    <mxGraphModel dx="1410" dy="735" grid="1" gridSize="10" guides="1" tooltips="1" connect="1" arrows="1" fold="1" page="1" pageScale="1" pageWidth="1169" pageHeight="827" math="0" shadow="0">
      <root>
        <mxCell id="WIyWlLk6GJQsqaUBKTNV-0" />
        <mxCell id="WIyWlLk6GJQsqaUBKTNV-1" parent="WIyWlLk6GJQsqaUBKTNV-0" />
        <mxCell id="6RRZTqg5tQzwaUfGDFgb-1" value="&lt;font style=&quot;font-size: 15px;&quot;&gt;支付网关API接口(支付、退款、查单、回调、分账、转账、获取用户ID)&lt;/font&gt;" style="rounded=0;whiteSpace=wrap;html=1;fillColor=#ffe6cc;strokeColor=#d79b00;" vertex="1" parent="WIyWlLk6GJQsqaUBKTNV-1">
          <mxGeometry x="240" y="220" width="640" height="60" as="geometry" />
        </mxCell>
        <mxCell id="6RRZTqg5tQzwaUfGDFgb-2" value="&lt;span style=&quot;font-size: 15px;&quot;&gt;&amp;nbsp; &amp;nbsp;支付核心&amp;nbsp;&amp;nbsp;&lt;/span&gt;" style="rounded=0;whiteSpace=wrap;html=1;fillColor=#ffe6cc;strokeColor=#d79b00;align=left;" vertex="1" parent="WIyWlLk6GJQsqaUBKTNV-1">
          <mxGeometry x="240" y="290" width="570" height="60" as="geometry" />
        </mxCell>
        <mxCell id="6RRZTqg5tQzwaUfGDFgb-8" value="" style="rounded=0;whiteSpace=wrap;html=1;align=center;fillColor=#fff2cc;strokeColor=#d6b656;" vertex="1" parent="WIyWlLk6GJQsqaUBKTNV-1">
          <mxGeometry x="240" y="360" width="310" height="200" as="geometry" />
        </mxCell>
        <mxCell id="6RRZTqg5tQzwaUfGDFgb-9" value="运营平台" style="text;html=1;align=center;verticalAlign=middle;whiteSpace=wrap;rounded=0;" vertex="1" parent="WIyWlLk6GJQsqaUBKTNV-1">
          <mxGeometry x="350" y="370" width="60" height="30" as="geometry" />
        </mxCell>
        <mxCell id="6RRZTqg5tQzwaUfGDFgb-11" value="数据统计" style="rounded=1;whiteSpace=wrap;html=1;" vertex="1" parent="WIyWlLk6GJQsqaUBKTNV-1">
          <mxGeometry x="250" y="400" width="90" height="30" as="geometry" />
        </mxCell>
        <mxCell id="6RRZTqg5tQzwaUfGDFgb-12" value="支&amp;nbsp; &amp;nbsp;付" style="rounded=1;whiteSpace=wrap;html=1;" vertex="1" parent="WIyWlLk6GJQsqaUBKTNV-1">
          <mxGeometry x="345" y="305" width="80" height="35" as="geometry" />
        </mxCell>
        <mxCell id="6RRZTqg5tQzwaUfGDFgb-13" value="退&amp;nbsp; &amp;nbsp;款" style="rounded=1;whiteSpace=wrap;html=1;" vertex="1" parent="WIyWlLk6GJQsqaUBKTNV-1">
          <mxGeometry x="440" y="304.5" width="80" height="35" as="geometry" />
        </mxCell>
        <mxCell id="6RRZTqg5tQzwaUfGDFgb-14" value="分&amp;nbsp; &amp;nbsp;账" style="rounded=1;whiteSpace=wrap;html=1;" vertex="1" parent="WIyWlLk6GJQsqaUBKTNV-1">
          <mxGeometry x="530" y="305" width="80" height="35" as="geometry" />
        </mxCell>
        <mxCell id="6RRZTqg5tQzwaUfGDFgb-15" value="转&amp;nbsp; &amp;nbsp;账" style="rounded=1;whiteSpace=wrap;html=1;" vertex="1" parent="WIyWlLk6GJQsqaUBKTNV-1">
          <mxGeometry x="620" y="305" width="80" height="35" as="geometry" />
        </mxCell>
        <mxCell id="6RRZTqg5tQzwaUfGDFgb-16" value="通&amp;nbsp; &amp;nbsp;道" style="rounded=1;whiteSpace=wrap;html=1;" vertex="1" parent="WIyWlLk6GJQsqaUBKTNV-1">
          <mxGeometry x="710" y="305" width="80" height="35" as="geometry" />
        </mxCell>
        <mxCell id="6RRZTqg5tQzwaUfGDFgb-17" value="数据统计" style="rounded=1;whiteSpace=wrap;html=1;" vertex="1" parent="WIyWlLk6GJQsqaUBKTNV-1">
          <mxGeometry x="350" y="400" width="90" height="30" as="geometry" />
        </mxCell>
        <mxCell id="6RRZTqg5tQzwaUfGDFgb-18" value="数据统计" style="rounded=1;whiteSpace=wrap;html=1;" vertex="1" parent="WIyWlLk6GJQsqaUBKTNV-1">
          <mxGeometry x="450" y="399" width="90" height="30" as="geometry" />
        </mxCell>
        <mxCell id="6RRZTqg5tQzwaUfGDFgb-19" value="服务商" style="rounded=1;whiteSpace=wrap;html=1;" vertex="1" parent="WIyWlLk6GJQsqaUBKTNV-1">
          <mxGeometry x="250" y="440" width="90" height="30" as="geometry" />
        </mxCell>
        <mxCell id="6RRZTqg5tQzwaUfGDFgb-20" value="商户管理" style="rounded=1;whiteSpace=wrap;html=1;" vertex="1" parent="WIyWlLk6GJQsqaUBKTNV-1">
          <mxGeometry x="250" y="480" width="90" height="30" as="geometry" />
        </mxCell>
        <mxCell id="6RRZTqg5tQzwaUfGDFgb-21" value="通道配置" style="rounded=1;whiteSpace=wrap;html=1;" vertex="1" parent="WIyWlLk6GJQsqaUBKTNV-1">
          <mxGeometry x="250" y="520" width="90" height="30" as="geometry" />
        </mxCell>
        <mxCell id="6RRZTqg5tQzwaUfGDFgb-22" value="支付方式" style="rounded=1;whiteSpace=wrap;html=1;" vertex="1" parent="WIyWlLk6GJQsqaUBKTNV-1">
          <mxGeometry x="350" y="440" width="90" height="30" as="geometry" />
        </mxCell>
        <mxCell id="6RRZTqg5tQzwaUfGDFgb-23" value="支付订单" style="rounded=1;whiteSpace=wrap;html=1;" vertex="1" parent="WIyWlLk6GJQsqaUBKTNV-1">
          <mxGeometry x="350" y="480" width="90" height="30" as="geometry" />
        </mxCell>
        <mxCell id="6RRZTqg5tQzwaUfGDFgb-24" value="退款管理" style="rounded=1;whiteSpace=wrap;html=1;" vertex="1" parent="WIyWlLk6GJQsqaUBKTNV-1">
          <mxGeometry x="350" y="520" width="90" height="30" as="geometry" />
        </mxCell>
        <mxCell id="6RRZTqg5tQzwaUfGDFgb-25" value="权限管理" style="rounded=1;whiteSpace=wrap;html=1;" vertex="1" parent="WIyWlLk6GJQsqaUBKTNV-1">
          <mxGeometry x="450" y="440" width="90" height="30" as="geometry" />
        </mxCell>
        <mxCell id="6RRZTqg5tQzwaUfGDFgb-26" value="系统配置" style="rounded=1;whiteSpace=wrap;html=1;" vertex="1" parent="WIyWlLk6GJQsqaUBKTNV-1">
          <mxGeometry x="450" y="480" width="90" height="30" as="geometry" />
        </mxCell>
        <mxCell id="6RRZTqg5tQzwaUfGDFgb-27" value="系统日志" style="rounded=1;whiteSpace=wrap;html=1;" vertex="1" parent="WIyWlLk6GJQsqaUBKTNV-1">
          <mxGeometry x="450" y="520" width="90" height="30" as="geometry" />
        </mxCell>
        <mxCell id="6RRZTqg5tQzwaUfGDFgb-28" value="" style="rounded=0;whiteSpace=wrap;html=1;fillColor=#fff2cc;strokeColor=#d6b656;" vertex="1" parent="WIyWlLk6GJQsqaUBKTNV-1">
          <mxGeometry x="560" y="360" width="320" height="200" as="geometry" />
        </mxCell>
        <mxCell id="6RRZTqg5tQzwaUfGDFgb-30" value="订单管理" style="rounded=1;whiteSpace=wrap;html=1;" vertex="1" parent="WIyWlLk6GJQsqaUBKTNV-1">
          <mxGeometry x="620" y="400" width="90" height="30" as="geometry" />
        </mxCell>
        <mxCell id="6RRZTqg5tQzwaUfGDFgb-31" value="商户系统" style="text;html=1;align=center;verticalAlign=middle;whiteSpace=wrap;rounded=0;" vertex="1" parent="WIyWlLk6GJQsqaUBKTNV-1">
          <mxGeometry x="690" y="370" width="60" height="30" as="geometry" />
        </mxCell>
        <mxCell id="6RRZTqg5tQzwaUfGDFgb-32" value="数据统计" style="rounded=1;whiteSpace=wrap;html=1;" vertex="1" parent="WIyWlLk6GJQsqaUBKTNV-1">
          <mxGeometry x="730" y="399" width="90" height="30" as="geometry" />
        </mxCell>
        <mxCell id="6RRZTqg5tQzwaUfGDFgb-33" value="退款记录" style="rounded=1;whiteSpace=wrap;html=1;" vertex="1" parent="WIyWlLk6GJQsqaUBKTNV-1">
          <mxGeometry x="620" y="440" width="90" height="30" as="geometry" />
        </mxCell>
        <mxCell id="6RRZTqg5tQzwaUfGDFgb-34" value="应用管理" style="rounded=1;whiteSpace=wrap;html=1;" vertex="1" parent="WIyWlLk6GJQsqaUBKTNV-1">
          <mxGeometry x="730" y="440" width="90" height="30" as="geometry" />
        </mxCell>
        <mxCell id="6RRZTqg5tQzwaUfGDFgb-35" value="转账订单" style="rounded=1;whiteSpace=wrap;html=1;" vertex="1" parent="WIyWlLk6GJQsqaUBKTNV-1">
          <mxGeometry x="620" y="480" width="90" height="30" as="geometry" />
        </mxCell>
        <mxCell id="6RRZTqg5tQzwaUfGDFgb-36" value="支付测试" style="rounded=1;whiteSpace=wrap;html=1;" vertex="1" parent="WIyWlLk6GJQsqaUBKTNV-1">
          <mxGeometry x="730" y="480" width="90" height="30" as="geometry" />
        </mxCell>
        <mxCell id="6RRZTqg5tQzwaUfGDFgb-37" value="分账管理" style="rounded=1;whiteSpace=wrap;html=1;" vertex="1" parent="WIyWlLk6GJQsqaUBKTNV-1">
          <mxGeometry x="620" y="520" width="90" height="30" as="geometry" />
        </mxCell>
        <mxCell id="6RRZTqg5tQzwaUfGDFgb-38" value="权限管理" style="rounded=1;whiteSpace=wrap;html=1;" vertex="1" parent="WIyWlLk6GJQsqaUBKTNV-1">
          <mxGeometry x="730" y="520" width="90" height="30" as="geometry" />
        </mxCell>
        <mxCell id="6RRZTqg5tQzwaUfGDFgb-39" value="" style="rounded=0;whiteSpace=wrap;html=1;fillColor=#f8cecc;strokeColor=#b85450;" vertex="1" parent="WIyWlLk6GJQsqaUBKTNV-1">
          <mxGeometry x="240" y="570" width="640" height="60" as="geometry" />
        </mxCell>
        <mxCell id="6RRZTqg5tQzwaUfGDFgb-40" value="SpringBoot" style="rounded=1;whiteSpace=wrap;html=1;" vertex="1" parent="WIyWlLk6GJQsqaUBKTNV-1">
          <mxGeometry x="260" y="580" width="90" height="40" as="geometry" />
        </mxCell>
        <mxCell id="6RRZTqg5tQzwaUfGDFgb-41" value="MySql" style="rounded=1;whiteSpace=wrap;html=1;" vertex="1" parent="WIyWlLk6GJQsqaUBKTNV-1">
          <mxGeometry x="361" y="580" width="90" height="40" as="geometry" />
        </mxCell>
        <mxCell id="6RRZTqg5tQzwaUfGDFgb-42" value="Redis" style="rounded=1;whiteSpace=wrap;html=1;" vertex="1" parent="WIyWlLk6GJQsqaUBKTNV-1">
          <mxGeometry x="463" y="580" width="90" height="40" as="geometry" />
        </mxCell>
        <mxCell id="6RRZTqg5tQzwaUfGDFgb-43" value="RabbitMQ" style="rounded=1;whiteSpace=wrap;html=1;" vertex="1" parent="WIyWlLk6GJQsqaUBKTNV-1">
          <mxGeometry x="565" y="580" width="90" height="40" as="geometry" />
        </mxCell>
        <mxCell id="6RRZTqg5tQzwaUfGDFgb-44" value="Nginx" style="rounded=1;whiteSpace=wrap;html=1;" vertex="1" parent="WIyWlLk6GJQsqaUBKTNV-1">
          <mxGeometry x="668" y="580" width="90" height="40" as="geometry" />
        </mxCell>
        <mxCell id="6RRZTqg5tQzwaUfGDFgb-45" value="Vue" style="rounded=1;whiteSpace=wrap;html=1;" vertex="1" parent="WIyWlLk6GJQsqaUBKTNV-1">
          <mxGeometry x="770" y="580" width="90" height="40" as="geometry" />
        </mxCell>
        <mxCell id="6RRZTqg5tQzwaUfGDFgb-46" value="&lt;font style=&quot;font-size: 26px;&quot;&gt;支付&lt;/font&gt;&lt;div&gt;&lt;font style=&quot;font-size: 26px;&quot;&gt;能力&lt;/font&gt;&lt;/div&gt;" style="rounded=0;whiteSpace=wrap;html=1;fillColor=#ffe6cc;strokeColor=#d79b00;" vertex="1" parent="WIyWlLk6GJQsqaUBKTNV-1">
          <mxGeometry x="160" y="220" width="70" height="130" as="geometry" />
        </mxCell>
        <mxCell id="6RRZTqg5tQzwaUfGDFgb-47" value="&lt;span style=&quot;font-size: 26px;&quot;&gt;管理&lt;/span&gt;&lt;div&gt;&lt;span style=&quot;font-size: 26px;&quot;&gt;平台&lt;/span&gt;&lt;/div&gt;" style="rounded=0;whiteSpace=wrap;html=1;fillColor=#fff2cc;strokeColor=#d6b656;" vertex="1" parent="WIyWlLk6GJQsqaUBKTNV-1">
          <mxGeometry x="160" y="360" width="70" height="200" as="geometry" />
        </mxCell>
        <mxCell id="6RRZTqg5tQzwaUfGDFgb-48" value="&lt;span style=&quot;font-size: 26px;&quot;&gt;技术&lt;/span&gt;&lt;div&gt;&lt;span style=&quot;font-size: 26px;&quot;&gt;框架&lt;/span&gt;&lt;/div&gt;" style="rounded=0;whiteSpace=wrap;html=1;fillColor=#f8cecc;strokeColor=#b85450;" vertex="1" parent="WIyWlLk6GJQsqaUBKTNV-1">
          <mxGeometry x="160" y="570" width="70" height="60" as="geometry" />
        </mxCell>
        <mxCell id="6RRZTqg5tQzwaUfGDFgb-49" value="" style="rounded=0;whiteSpace=wrap;html=1;fillColor=#d5e8d4;strokeColor=#82b366;" vertex="1" parent="WIyWlLk6GJQsqaUBKTNV-1">
          <mxGeometry x="890" y="220" width="110" height="410" as="geometry" />
        </mxCell>
        <mxCell id="6RRZTqg5tQzwaUfGDFgb-50" value="" style="shape=flexArrow;endArrow=classic;startArrow=classic;html=1;rounded=0;exitX=0.872;exitY=0.983;exitDx=0;exitDy=0;exitPerimeter=0;width=14;dashed=1;fillColor=#dae8fc;strokeColor=#6c8ebf;" edge="1" parent="WIyWlLk6GJQsqaUBKTNV-1">
          <mxGeometry width="100" height="100" relative="1" as="geometry">
            <mxPoint x="809.9999999999999" y="319.49" as="sourcePoint" />
            <mxPoint x="881" y="320.51" as="targetPoint" />
            <Array as="points">
              <mxPoint x="861.92" y="320.51" />
            </Array>
          </mxGeometry>
        </mxCell>
        <mxCell id="6RRZTqg5tQzwaUfGDFgb-51" value="支付通道" style="text;html=1;align=center;verticalAlign=middle;whiteSpace=wrap;rounded=0;" vertex="1" parent="WIyWlLk6GJQsqaUBKTNV-1">
          <mxGeometry x="915" y="235" width="60" height="30" as="geometry" />
        </mxCell>
        <mxCell id="6RRZTqg5tQzwaUfGDFgb-52" value="微信支付" style="rounded=1;whiteSpace=wrap;html=1;" vertex="1" parent="WIyWlLk6GJQsqaUBKTNV-1">
          <mxGeometry x="900" y="270.5" width="90" height="30" as="geometry" />
        </mxCell>
        <mxCell id="6RRZTqg5tQzwaUfGDFgb-53" value="支付宝" style="rounded=1;whiteSpace=wrap;html=1;" vertex="1" parent="WIyWlLk6GJQsqaUBKTNV-1">
          <mxGeometry x="900" y="312" width="90" height="30" as="geometry" />
        </mxCell>
        <mxCell id="6RRZTqg5tQzwaUfGDFgb-54" value="云闪付" style="rounded=1;whiteSpace=wrap;html=1;" vertex="1" parent="WIyWlLk6GJQsqaUBKTNV-1">
          <mxGeometry x="900" y="353" width="90" height="30" as="geometry" />
        </mxCell>
        <mxCell id="6RRZTqg5tQzwaUfGDFgb-55" value="盛付通" style="rounded=1;whiteSpace=wrap;html=1;" vertex="1" parent="WIyWlLk6GJQsqaUBKTNV-1">
          <mxGeometry x="900" y="394" width="90" height="30" as="geometry" />
        </mxCell>
        <mxCell id="6RRZTqg5tQzwaUfGDFgb-56" value="京东支付" style="rounded=1;whiteSpace=wrap;html=1;" vertex="1" parent="WIyWlLk6GJQsqaUBKTNV-1">
          <mxGeometry x="900" y="436" width="90" height="30" as="geometry" />
        </mxCell>
        <mxCell id="6RRZTqg5tQzwaUfGDFgb-57" value="农业银行" style="rounded=1;whiteSpace=wrap;html=1;" vertex="1" parent="WIyWlLk6GJQsqaUBKTNV-1">
          <mxGeometry x="900" y="477" width="90" height="30" as="geometry" />
        </mxCell>
        <mxCell id="6RRZTqg5tQzwaUfGDFgb-58" value="工商银行" style="rounded=1;whiteSpace=wrap;html=1;" vertex="1" parent="WIyWlLk6GJQsqaUBKTNV-1">
          <mxGeometry x="900" y="517" width="90" height="30" as="geometry" />
        </mxCell>
        <mxCell id="6RRZTqg5tQzwaUfGDFgb-59" value="交通银行" style="rounded=1;whiteSpace=wrap;html=1;" vertex="1" parent="WIyWlLk6GJQsqaUBKTNV-1">
          <mxGeometry x="900" y="557" width="90" height="30" as="geometry" />
        </mxCell>
        <mxCell id="6RRZTqg5tQzwaUfGDFgb-60" value="其它通道" style="rounded=1;whiteSpace=wrap;html=1;" vertex="1" parent="WIyWlLk6GJQsqaUBKTNV-1">
          <mxGeometry x="900" y="595" width="90" height="30" as="geometry" />
        </mxCell>
        <mxCell id="6RRZTqg5tQzwaUfGDFgb-62" value="&lt;font style=&quot;font-size: 30px;&quot;&gt;&lt;b&gt;HenPay&lt;span style=&quot;color: rgba(0, 0, 0, 0.88); font-family: Inter, -apple-system, BlinkMacSystemFont, &amp;quot;Segoe UI&amp;quot;, &amp;quot;SF Pro SC&amp;quot;, &amp;quot;SF Pro Display&amp;quot;, &amp;quot;SF Pro Icons&amp;quot;, &amp;quot;PingFang SC&amp;quot;, &amp;quot;Hiragino Sans GB&amp;quot;, &amp;quot;Microsoft YaHei&amp;quot;, &amp;quot;Helvetica Neue&amp;quot;, Helvetica, Arial, sans-serif; text-align: left; white-space-collapse: preserve-breaks; background-color: rgba(175, 184, 193, 0.2);&quot;&gt;支付系统架构&lt;/span&gt;&lt;/b&gt;&lt;/font&gt;" style="text;html=1;align=center;verticalAlign=middle;whiteSpace=wrap;rounded=0;" vertex="1" parent="WIyWlLk6GJQsqaUBKTNV-1">
          <mxGeometry x="315" y="180" width="490" height="30" as="geometry" />
        </mxCell>
      </root>
    </mxGraphModel>
  </diagram>
</mxfile>
